<?xml version="1.0" encoding="UTF-8"?>
<svg width="142px" height="62px" viewBox="0 0 142 62" version="1.1" xmlns="http://www.w3.org/2000/svg" xmlns:xlink="http://www.w3.org/1999/xlink">
    <!-- Generator: Sketch 51.2 (57519) - http://www.bohemiancoding.com/sketch -->
    <title>Artboard</title>
    <desc>Created with Sketch.</desc>
    <defs></defs>
    <g id="Artboard" stroke="none" stroke-width="1" fill="none" fill-rule="evenodd">
        <g id="Group-7">
            <path d="M4.2,28.6 L0.56,28.6 C0.2,28.6 0,28.4 0,28 L0,0.6 C0,0.2 0.2,0 0.56,0 L4.92,0 C5.2,0 5.44,0.12 5.56,0.44 L10.44,9.52 C11.52,11.52 13.2,15.12 13.84,16.56 L14,16.56 C14.64,15.12 16.32,11.52 17.4,9.52 L22.24,0.44 C22.4,0.12 22.64,0 22.92,0 L27.24,0 C27.64,0 27.84,0.2 27.84,0.6 L27.84,28 C27.84,28.4 27.64,28.6 27.24,28.6 L23.6,28.6 C23.24,28.6 23.04,28.4 23.04,28 L23.04,19.96 C23.04,16.2 23.2,11.32 23.36,7.4 L23.24,7.36 C22.28,9.44 20.96,12.12 19.64,14.76 L16.12,21.6 C16,21.88 15.76,22.04 15.44,22.04 L12.4,22.04 C12.08,22.04 11.84,21.88 11.72,21.6 L8.2,14.76 C6.88,12.12 5.56,9.44 4.6,7.36 L4.48,7.4 C4.64,11.32 4.8,16.2 4.8,19.96 L4.8,28 C4.8,28.4 4.6,28.6 4.2,28.6 Z M35.8,28.6 L31.88,28.6 C31.44,28.6 31.28,28.36 31.4,27.92 L41,0.48 C41.12,0.16 41.32,0 41.64,0 L46.2,0 C46.52,0 46.72,0.16 46.84,0.48 L56.44,27.92 C56.56,28.36 56.36,28.6 55.96,28.6 L52.04,28.6 C51.72,28.6 51.44,28.44 51.36,28.12 L49.4,22.08 L38.44,22.08 L36.48,28.12 C36.36,28.44 36.12,28.6 35.8,28.6 Z M43.84,5.28 L39.8,17.72 L48.04,17.72 L44,5.28 L43.84,5.28 Z M64.2,28.6 L60.56,28.6 C60.2,28.6 60,28.4 60,28 L60,0.6 C60,0.2 60.2,0 60.56,0 L64.92,0 C65.2,0 65.44,0.12 65.56,0.44 L70.44,9.52 C71.52,11.52 73.2,15.12 73.84,16.56 L74,16.56 C74.64,15.12 76.32,11.52 77.4,9.52 L82.24,0.44 C82.4,0.12 82.64,0 82.92,0 L87.24,0 C87.64,0 87.84,0.2 87.84,0.6 L87.84,28 C87.84,28.4 87.64,28.6 87.24,28.6 L83.6,28.6 C83.24,28.6 83.04,28.4 83.04,28 L83.04,19.96 C83.04,16.2 83.2,11.32 83.36,7.4 L83.24,7.36 C82.28,9.44 80.96,12.12 79.64,14.76 L76.12,21.6 C76,21.88 75.76,22.04 75.44,22.04 L72.4,22.04 C72.08,22.04 71.84,21.88 71.72,21.6 L68.2,14.76 C66.88,12.12 65.56,9.44 64.6,7.36 L64.48,7.4 C64.64,11.32 64.8,16.2 64.8,19.96 L64.8,28 C64.8,28.4 64.6,28.6 64.2,28.6 Z M113.92,7.84 C113.92,10.32 112.88,12.36 111.08,13.44 C113.76,14.6 115.16,17 115.16,20.04 C115.16,25.4 111.52,28.6 105.36,28.6 L94.96,28.6 C94.6,28.6 94.4,28.4 94.4,28 L94.4,0.6 C94.4,0.2 94.6,0 94.96,0 L105.36,0 C110.76,0 113.92,2.88 113.92,7.84 Z M99.2,24.28 L105.32,24.28 C108.2,24.28 110.24,23.08 110.24,20 C110.24,17.48 108.72,15.76 105.28,15.76 L99.2,15.76 L99.2,24.28 Z M109.04,7.92 C109.04,5.48 107.4,4.32 105.2,4.32 L99.2,4.32 L99.2,11.56 L105.2,11.56 C107.44,11.56 109.04,10.44 109.04,7.92 Z M121.36,28.6 L117.44,28.6 C117,28.6 116.84,28.36 116.96,27.92 L126.56,0.48 C126.68,0.16 126.88,0 127.2,0 L131.76,0 C132.08,0 132.28,0.16 132.4,0.48 L142,27.92 C142.12,28.36 141.92,28.6 141.52,28.6 L137.6,28.6 C137.28,28.6 137,28.44 136.92,28.12 L134.96,22.08 L124,22.08 L122.04,28.12 C121.92,28.44 121.68,28.6 121.36,28.6 Z M129.4,5.28 L125.36,17.72 L133.6,17.72 L129.56,5.28 L129.4,5.28 Z" id="MAMBA" fill="#0E2D3F"></path>
            <g id="Group-2" transform="translate(0.000000, 41.000000)" fill="#4BAC22">
                <path d="M13.0800951,14.5258546 C13.0800951,17.9269766 10.2761168,19.6145561 6.53747893,19.6145561 C3.94120265,19.6145561 2.12380926,18.8097105 0.0987137657,17.1480937 C-0.00513728525,17.0442426 -0.00513728525,16.9403916 0.072751003,16.8365405 L0.617969021,16.0836204 C0.695857309,15.9797694 0.79970836,15.9538066 0.929522174,16.0316949 C2.74691557,17.5115724 4.43449514,18.2385297 6.56344169,18.2644925 C9.41934559,18.2644925 11.6261804,17.0442426 11.6261804,14.5258546 C11.6261804,12.2670943 9.99052637,11.3583976 6.30381406,10.5275892 C2.69499004,9.69678078 0.124676528,8.26882882 0.124676528,5.15329729 C0.124676528,1.93391471 3.05846872,0.48 6.45959064,0.48 C8.82220205,0.48 10.6655582,1.18099459 12.5089144,2.55702102 C12.6387282,2.63490931 12.6127654,2.76472312 12.5608399,2.86857417 L12.0415846,3.59553153 C11.9636963,3.72534534 11.8338825,3.75130811 11.7300315,3.67341982 C10.1203402,2.45316997 8.32890956,1.85602643 6.30381406,1.83006366 C3.70753779,1.83006366 1.57859124,2.9204997 1.57859124,5.20522282 C1.57859124,7.41205765 3.4219474,8.37267988 6.64132998,9.1256 C10.7694093,10.112185 13.0800951,11.3583976 13.0800951,14.5258546 Z M23.1276843,19.3289658 L16.8966213,19.3289658 C16.7668075,19.3289658 16.6889192,19.2510775 16.6889192,19.1212637 L16.6889192,0.973292492 C16.6889192,0.843478678 16.7668075,0.76559039 16.8966213,0.76559039 L23.1276843,0.76559039 C27.1778753,0.76559039 29.6703005,3.20609009 29.6703005,7.3082066 L29.6703005,12.8642378 C29.6703005,16.9663543 27.1519126,19.3289658 23.1276843,19.3289658 Z M18.1168711,2.08969129 L18.1168711,17.9789021 L23.1276843,17.9789021 C26.3211041,17.9789021 28.1904231,16.1874715 28.1904231,12.8642378 L28.1904231,7.3082066 C28.1904231,3.95901021 26.3211041,2.08969129 23.1276843,2.08969129 L18.1168711,2.08969129 Z M35.1224807,19.3289658 L34.109933,19.3289658 C33.9801192,19.3289658 33.9022309,19.2510775 33.9022309,19.1212637 L33.9022309,0.973292492 C33.9022309,0.843478678 33.9801192,0.76559039 34.109933,0.76559039 L35.1224807,0.76559039 C35.2522945,0.76559039 35.3301828,0.843478678 35.3301828,0.973292492 L35.3301828,10.5016264 L44.7027402,0.895404204 C44.8065912,0.817515916 44.8844795,0.76559039 44.9883306,0.76559039 L46.3124315,0.76559039 C46.4941708,0.76559039 46.5720591,0.895404204 46.4422453,1.02521802 L38.5236026,9.1256 L46.9355378,19.0693381 C47.0653516,19.2251147 46.9874633,19.3289658 46.805724,19.3289658 L45.4816231,19.3289658 C45.377772,19.3289658 45.2739209,19.303003 45.2219954,19.1991519 L37.5629804,10.1381477 L35.3301828,12.3449826 L35.3301828,19.1212637 C35.3301828,19.2510775 35.2522945,19.3289658 35.1224807,19.3289658 Z" id="SDK"></path>
            </g>
        </g>
    </g>
</svg>