<?xml version="1.0" encoding="UTF-8"?>
<svg width="128px" height="48px" viewBox="0 0 128 48" version="1.1" xmlns="http://www.w3.org/2000/svg" xmlns:xlink="http://www.w3.org/1999/xlink">
    <!-- Generator: Sketch 50.2 (55047) - http://www.bohemiancoding.com/sketch -->
    <title>Logo</title>
    <desc>Created with Sketch.</desc>
    <defs></defs>
    <g id="Page-1" stroke="none" stroke-width="1" fill="none" fill-rule="evenodd">
        <g id="Desktop-HD" transform="translate(-134.000000, -38.000000)" fill="#2A6242">
            <g id="Logo" transform="translate(134.000000, 38.000000)">
                <path d="M1.04072398,45.0058488 C0.452488688,44.6727242 0,43.9600202 0,43.0094834 C0,41.725822 0.950226244,40.6803903 2.2168175,40.6803903 C2.66930618,40.6803903 3.07616893,40.8229311 3.39291101,41.0131179 C5.69984917,42.6291098 8.09766214,43.4371058 10.2692308,43.4371058 C12.6214178,43.4371058 13.9785068,42.3912771 13.9785068,40.7280363 L13.9785068,40.6323473 C13.9785068,38.6840249 11.4453243,38.0181727 8.64064857,37.1156789 C5.11199095,36.0694531 1.17609351,34.5483561 1.17609351,29.7476292 L1.17609351,29.6527343 C1.17609351,24.8992563 4.93099548,22 9.68099548,22 C12.214178,22 14.8834842,22.7607471 17.1904223,24.0440114 C17.959276,24.4716339 18.5022624,25.2323809 18.5022624,26.2301666 C18.5022624,27.5610769 17.5071644,28.5592597 16.2405732,28.5592597 C15.7880845,28.5592597 15.5165913,28.4643648 15.1549774,28.273781 C13.209276,27.2287464 11.2190799,26.5632912 9.54524887,26.5632912 C7.41892911,26.5632912 6.19758673,27.6091199 6.19758673,29.034528 L6.19758673,29.12982 C6.19758673,30.9836446 8.77639517,31.7443917 11.5810709,32.6945314 C15.0641026,33.835652 19,35.4992899 19,40.0149352 L19,40.10983 C19,45.3858253 15.1097285,48 10.1334842,48 C7.1025641,48 3.80015083,47.0018173 1.04072398,45.0058488" id="Fill-1"></path>
                <path d="M55.1968968,35.1176569 L55.1968968,35.0234525 C55.1968968,30.6352652 51.9837437,27.0015008 47.427846,27.0015008 C42.7760094,27.0015008 39.8027035,30.587966 39.8027035,34.9288541 L39.8027035,35.0234525 C39.8027035,39.3647348 43.0158566,42.9977108 47.5237848,42.9977108 C52.2239906,42.9977108 55.1968968,39.412034 55.1968968,35.1176569 M34,35.1176569 L34,35.0234525 C34,27.8982157 39.754734,22 47.5237848,22 C55.2928357,22 61,27.8036172 61,34.9288541 L61,35.0234525 C61,42.1013902 55.2448662,48 47.427846,48 C39.7067646,48 34,42.1955945 34,35.1176569" id="Fill-4"></path>
                <path d="M73.8791039,22 C67.8041219,22 63,26.8311257 63,33.0990292 L63,45.1028446 C63,46.70282 64.2573197,48 65.8082719,48 C67.3588373,48 68.616157,46.70282 68.616157,45.1028446 L68.616157,32.8974323 C68.616157,29.6214827 71.1141611,27.3775173 73.8791039,27.3775173 C76.6440466,27.3775173 79.383843,29.6214827 79.383843,32.8974323 L79.383843,45.1028446 C79.383843,46.70282 80.6411627,48 82.1917281,48 C83.7426803,48 85,46.70282 85,45.1028446 L85,33.0990292 C85,26.8311257 79.9544727,22 73.8791039,22" id="Fill-6"></path>
                <path d="M22,38.1113336 C22,43.1478133 25.7680342,46.6357391 30.7413237,46.9634221 C31.0083974,46.984338 31.7987419,47.0110639 32.2821331,46.9951833 C33.7830627,46.9951833 35,45.8277643 35,44.3872761 C35,42.9471752 33.7830627,41.7797562 32.2821331,41.7797562 L31.4889688,41.7797562 C29.4063585,41.7797562 27.9130825,40.1785252 27.8478247,38.2372165 L27.8478247,27.0560999 L32.3421542,27.0560999 C33.8100521,27.0560999 35,25.9146321 35,24.5059052 C35,23.0971782 33.8100521,21.9553231 32.3421542,21.9553231 L27.8478247,21.9553231 L27.8478247,17.8054466 C27.8478247,16.2561181 26.5386403,15 24.923711,15 C23.3091844,15 22,16.2561181 22,17.8054466 L22,24.5059052 L22,38.1113336 Z" id="Fill-8"></path>
                <path d="M97.7917267,34.5611024 C97.7917267,35.9162258 98.888598,37.0151449 100.241916,37.0151449 L106.60754,37.0151449 L108.137583,37.0151449 L109.54981,37.0151449 C110.903129,37.0151449 112,35.9162258 112,34.5611024 C112,27.4358656 107.250425,22 100.649169,22 C93.1430816,22 88,27.8982157 88,35.0234525 L88,35.1176569 C88,42.1955945 93.5142034,48 100.974342,48 C104.183663,48 107.03168,46.9337962 109.246629,45.1651987 C110.507658,44.1585131 110.570494,42.2618134 109.361697,41.1928505 C108.37518,40.3197853 106.958241,40.4120189 105.919099,41.2208359 C104.513549,42.3142368 103.028669,42.9977108 101.066632,42.9977108 C96.7113497,42.9977108 93.6068857,39.3651289 93.6068857,35.0234525 L93.6068857,34.9292482 C93.6068857,30.587966 96.0621809,27.0015008 100.556879,27.0015008 C103.525461,27.0015008 105.610813,29.1370617 106.426496,32.1074542 L100.241916,32.1074542 C98.888598,32.1074542 97.7917267,33.2059791 97.7917267,34.5611024" id="Fill-11"></path>
                <path d="M113.649716,21.7586932 L104.525979,12.3146873 C103.824674,11.5883752 103.824674,10.4116248 104.525979,9.6853127 L113.649716,0.241306781 C114.14812,-0.274203382 115,0.0909009437 115,0.820330291 L115,21.1796697 C115,21.9090991 114.14812,22.2742034 113.649716,21.7586932" id="Fill-13"></path>
                <path d="M117.868219,0.00243818851 C117.399212,-0.0342274267 117,0.347480925 117,0.821046292 L117,5.22902515 C117,5.62887333 117.284549,5.98317896 117.677625,6.03644059 C120.115849,6.36836089 121.994945,8.46409027 121.994945,10.999807 C121.994945,13.5359097 120.115849,15.6316391 117.677625,15.9631735 C117.284549,16.016821 117,16.3711267 117,16.7705889 L117,21.1789537 C117,21.6525191 117.399212,22.0342274 117.868219,21.9975618 C123.537721,21.5537149 128,16.7995354 128,10.999807 C128,5.20046456 123.537721,0.446285109 117.868219,0.00243818851" id="Fill-15"></path>
            </g>
        </g>
    </g>
</svg>