<svg width="142" height="61" viewBox="0 0 142 61" fill="none" xmlns="http://www.w3.org/2000/svg">
<path fill-rule="evenodd" clip-rule="evenodd" d="M4.2 28.6H0.56C0.2 28.6 0 28.4 0 28V0.6C0 0.2 0.2 0 0.56 0H4.92C5.2 0 5.44 0.12 5.56 0.44L10.44 9.52C11.52 11.52 13.2 15.12 13.84 16.56H14C14.64 15.12 16.32 11.52 17.4 9.52L22.24 0.44C22.4 0.12 22.64 0 22.92 0H27.24C27.64 0 27.84 0.2 27.84 0.6V28C27.84 28.4 27.64 28.6 27.24 28.6H23.6C23.24 28.6 23.04 28.4 23.04 28V19.96C23.04 16.2 23.2 11.32 23.36 7.4L23.24 7.36C22.28 9.44 20.96 12.12 19.64 14.76L16.12 21.6C16 21.88 15.76 22.04 15.44 22.04H12.4C12.08 22.04 11.84 21.88 11.72 21.6L8.2 14.76C6.88 12.12 5.56 9.44 4.6 7.36L4.48 7.4C4.64 11.32 4.8 16.2 4.8 19.96V28C4.8 28.4 4.6 28.6 4.2 28.6ZM35.8 28.6H31.88C31.44 28.6 31.28 28.36 31.4 27.92L41 0.48C41.12 0.16 41.32 0 41.64 0H46.2C46.52 0 46.72 0.16 46.84 0.48L56.44 27.92C56.56 28.36 56.36 28.6 55.96 28.6H52.04C51.72 28.6 51.44 28.44 51.36 28.12L49.4 22.08H38.44L36.48 28.12C36.36 28.44 36.12 28.6 35.8 28.6ZM43.84 5.28L39.8 17.72H48.04L44 5.28H43.84ZM64.2 28.6H60.56C60.2 28.6 60 28.4 60 28V0.6C60 0.2 60.2 0 60.56 0H64.92C65.2 0 65.44 0.12 65.56 0.44L70.44 9.52C71.52 11.52 73.2 15.12 73.84 16.56H74C74.64 15.12 76.32 11.52 77.4 9.52L82.24 0.44C82.4 0.12 82.64 0 82.92 0H87.24C87.64 0 87.84 0.2 87.84 0.6V28C87.84 28.4 87.64 28.6 87.24 28.6H83.6C83.24 28.6 83.04 28.4 83.04 28V19.96C83.04 16.2 83.2 11.32 83.36 7.4L83.24 7.36C82.28 9.44 80.96 12.12 79.64 14.76L76.12 21.6C76 21.88 75.76 22.04 75.44 22.04H72.4C72.08 22.04 71.84 21.88 71.72 21.6L68.2 14.76C66.88 12.12 65.56 9.44 64.6 7.36L64.48 7.4C64.64 11.32 64.8 16.2 64.8 19.96V28C64.8 28.4 64.6 28.6 64.2 28.6ZM113.92 7.84C113.92 10.32 112.88 12.36 111.08 13.44C113.76 14.6 115.16 17 115.16 20.04C115.16 25.4 111.52 28.6 105.36 28.6H94.96C94.6 28.6 94.4 28.4 94.4 28V0.6C94.4 0.2 94.6 0 94.96 0H105.36C110.76 0 113.92 2.88 113.92 7.84ZM99.2 24.28H105.32C108.2 24.28 110.24 23.08 110.24 20C110.24 17.48 108.72 15.76 105.28 15.76H99.2V24.28ZM109.04 7.92C109.04 5.48 107.4 4.32 105.2 4.32H99.2V11.56H105.2C107.44 11.56 109.04 10.44 109.04 7.92ZM121.36 28.6H117.44C117 28.6 116.84 28.36 116.96 27.92L126.56 0.48C126.68 0.16 126.88 0 127.2 0H131.76C132.08 0 132.28 0.16 132.4 0.48L142 27.92C142.12 28.36 141.92 28.6 141.52 28.6H137.6C137.28 28.6 137 28.44 136.92 28.12L134.96 22.08H124L122.04 28.12C121.92 28.44 121.68 28.6 121.36 28.6ZM129.4 5.28L125.36 17.72H133.6L129.56 5.28H129.4Z" fill="#F1F1F1"/>
<path fill-rule="evenodd" clip-rule="evenodd" d="M13.0801 55.5258C13.0801 58.927 10.2761 60.6145 6.53748 60.6145C3.9412 60.6145 2.12381 59.8097 0.0987097 58.1481C-0.00514134 58.0442 -0.00514134 57.9404 0.072747 57.8365L0.617965 57.0836C0.695853 56.9797 0.799704 56.9538 0.929518 57.0317C2.74691 58.5116 4.43449 59.2385 6.56344 59.2645C9.41934 59.2645 11.6262 58.0442 11.6262 55.5258C11.6262 53.2671 9.99052 52.3584 6.30381 51.5276C2.69499 50.6968 0.124672 49.2688 0.124672 46.1533C0.124672 42.9339 3.05846 41.48 6.45959 41.48C8.8222 41.48 10.6656 42.181 12.5089 43.557C12.6387 43.6349 12.6128 43.7647 12.5608 43.8686L12.0416 44.5955C11.9637 44.7253 11.8339 44.7513 11.73 44.6734C10.1203 43.4532 8.32891 42.856 6.30381 42.83C3.70753 42.83 1.57859 43.9205 1.57859 46.2052C1.57859 48.412 3.42194 49.3727 6.64133 50.1256C10.7694 51.1122 13.0801 52.3584 13.0801 55.5258ZM23.1277 60.3289H16.8966C16.7668 60.3289 16.6889 60.2511 16.6889 60.1212V41.9733C16.6889 41.8435 16.7668 41.7656 16.8966 41.7656H23.1277C27.1779 41.7656 29.6703 44.2061 29.6703 48.3082V53.8642C29.6703 57.9663 27.1519 60.3289 23.1277 60.3289ZM18.1169 43.0897V58.9789H23.1277C26.3211 58.9789 28.1904 57.1875 28.1904 53.8642V48.3082C28.1904 44.959 26.3211 43.0897 23.1277 43.0897H18.1169ZM35.1225 60.3289H34.1099C33.9801 60.3289 33.9022 60.2511 33.9022 60.1212V41.9733C33.9022 41.8435 33.9801 41.7656 34.1099 41.7656H35.1225C35.2523 41.7656 35.3302 41.8435 35.3302 41.9733V51.5016L44.7027 41.8954C44.8066 41.8175 44.8845 41.7656 44.9883 41.7656H46.3124C46.4942 41.7656 46.5721 41.8954 46.4422 42.0252L38.5236 50.1256L46.9355 60.0693C47.0653 60.2251 46.9875 60.3289 46.8057 60.3289H45.4816C45.3778 60.3289 45.2739 60.303 45.222 60.1991L37.563 51.1381L35.3302 53.345V60.1212C35.3302 60.2511 35.2523 60.3289 35.1225 60.3289Z" fill="#00A962"/>
</svg>
