<?xml version="1.0" encoding="UTF-8"?>
<svg width="142px" height="56px" viewBox="0 0 142 56" version="1.1" xmlns="http://www.w3.org/2000/svg" xmlns:xlink="http://www.w3.org/1999/xlink">
    <!-- Generator: Sketch 51.2 (57519) - http://www.bohemiancoding.com/sketch -->
    <title>Artboard</title>
    <desc>Created with Sketch.</desc>
    <defs></defs>
    <g id="Artboard" stroke="none" stroke-width="1" fill="none" fill-rule="evenodd">
        <g id="Group-7">
            <path d="M4.2,28.6 L0.56,28.6 C0.2,28.6 0,28.4 0,28 L0,0.6 C0,0.2 0.2,0 0.56,0 L4.92,0 C5.2,0 5.44,0.12 5.56,0.44 L10.44,9.52 C11.52,11.52 13.2,15.12 13.84,16.56 L14,16.56 C14.64,15.12 16.32,11.52 17.4,9.52 L22.24,0.44 C22.4,0.12 22.64,0 22.92,0 L27.24,0 C27.64,0 27.84,0.2 27.84,0.6 L27.84,28 C27.84,28.4 27.64,28.6 27.24,28.6 L23.6,28.6 C23.24,28.6 23.04,28.4 23.04,28 L23.04,19.96 C23.04,16.2 23.2,11.32 23.36,7.4 L23.24,7.36 C22.28,9.44 20.96,12.12 19.64,14.76 L16.12,21.6 C16,21.88 15.76,22.04 15.44,22.04 L12.4,22.04 C12.08,22.04 11.84,21.88 11.72,21.6 L8.2,14.76 C6.88,12.12 5.56,9.44 4.6,7.36 L4.48,7.4 C4.64,11.32 4.8,16.2 4.8,19.96 L4.8,28 C4.8,28.4 4.6,28.6 4.2,28.6 Z M35.8,28.6 L31.88,28.6 C31.44,28.6 31.28,28.36 31.4,27.92 L41,0.48 C41.12,0.16 41.32,0 41.64,0 L46.2,0 C46.52,0 46.72,0.16 46.84,0.48 L56.44,27.92 C56.56,28.36 56.36,28.6 55.96,28.6 L52.04,28.6 C51.72,28.6 51.44,28.44 51.36,28.12 L49.4,22.08 L38.44,22.08 L36.48,28.12 C36.36,28.44 36.12,28.6 35.8,28.6 Z M43.84,5.28 L39.8,17.72 L48.04,17.72 L44,5.28 L43.84,5.28 Z M64.2,28.6 L60.56,28.6 C60.2,28.6 60,28.4 60,28 L60,0.6 C60,0.2 60.2,0 60.56,0 L64.92,0 C65.2,0 65.44,0.12 65.56,0.44 L70.44,9.52 C71.52,11.52 73.2,15.12 73.84,16.56 L74,16.56 C74.64,15.12 76.32,11.52 77.4,9.52 L82.24,0.44 C82.4,0.12 82.64,0 82.92,0 L87.24,0 C87.64,0 87.84,0.2 87.84,0.6 L87.84,28 C87.84,28.4 87.64,28.6 87.24,28.6 L83.6,28.6 C83.24,28.6 83.04,28.4 83.04,28 L83.04,19.96 C83.04,16.2 83.2,11.32 83.36,7.4 L83.24,7.36 C82.28,9.44 80.96,12.12 79.64,14.76 L76.12,21.6 C76,21.88 75.76,22.04 75.44,22.04 L72.4,22.04 C72.08,22.04 71.84,21.88 71.72,21.6 L68.2,14.76 C66.88,12.12 65.56,9.44 64.6,7.36 L64.48,7.4 C64.64,11.32 64.8,16.2 64.8,19.96 L64.8,28 C64.8,28.4 64.6,28.6 64.2,28.6 Z M113.92,7.84 C113.92,10.32 112.88,12.36 111.08,13.44 C113.76,14.6 115.16,17 115.16,20.04 C115.16,25.4 111.52,28.6 105.36,28.6 L94.96,28.6 C94.6,28.6 94.4,28.4 94.4,28 L94.4,0.6 C94.4,0.2 94.6,0 94.96,0 L105.36,0 C110.76,0 113.92,2.88 113.92,7.84 Z M99.2,24.28 L105.32,24.28 C108.2,24.28 110.24,23.08 110.24,20 C110.24,17.48 108.72,15.76 105.28,15.76 L99.2,15.76 L99.2,24.28 Z M109.04,7.92 C109.04,5.48 107.4,4.32 105.2,4.32 L99.2,4.32 L99.2,11.56 L105.2,11.56 C107.44,11.56 109.04,10.44 109.04,7.92 Z M121.36,28.6 L117.44,28.6 C117,28.6 116.84,28.36 116.96,27.92 L126.56,0.48 C126.68,0.16 126.88,0 127.2,0 L131.76,0 C132.08,0 132.28,0.16 132.4,0.48 L142,27.92 C142.12,28.36 141.92,28.6 141.52,28.6 L137.6,28.6 C137.28,28.6 137,28.44 136.92,28.12 L134.96,22.08 L124,22.08 L122.04,28.12 C121.92,28.44 121.68,28.6 121.36,28.6 Z M129.4,5.28 L125.36,17.72 L133.6,17.72 L129.56,5.28 L129.4,5.28 Z" id="MAMBA" fill="#0E2D3F"></path>
            <g id="Group-2" transform="translate(0.000000, 41.000000)">
                <path d="M3.68,15 C3.58,15 3.54,14.94 3.5,14.86 L0.4,4.9 C0.38,4.78 0.42,4.7 0.54,4.7 L1.3,4.7 C1.4,4.7 1.46,4.74 1.48,4.84 L3.46,11.28 C3.72,12.1 3.9,12.92 4.12,13.74 L4.14,13.74 C4.36,12.98 4.56,12.14 4.78,11.46 L6.88,5.04 C6.9,4.96 6.96,4.9 7.06,4.9 L7.88,4.9 C7.98,4.9 8.04,4.96 8.06,5.04 L10.16,11.46 C10.38,12.14 10.58,12.98 10.8,13.74 L10.82,13.74 C10.98,13.14 11.32,11.92 11.48,11.28 L13.46,4.84 C13.48,4.74 13.54,4.7 13.64,4.7 L14.4,4.7 C14.5,4.7 14.56,4.78 14.52,4.9 L11.44,14.86 C11.4,14.94 11.36,15 11.26,15 L10.36,15 C10.26,15 10.22,14.94 10.18,14.86 L7.94,7.9 C7.78,7.4 7.64,6.8 7.48,6.24 L7.46,6.24 C7.3,6.8 7.16,7.4 7,7.9 L4.74,14.86 C4.72,14.94 4.68,15 4.58,15 L3.68,15 Z M24.1,8.36 L24.1,10.24 C24.1,10.34 24.02,10.4 23.92,10.4 L17.02,10.4 L17.02,11.52 C17.02,13.26 18.38,14.26 20.04,14.26 C21.54,14.26 22.56,13.62 23.3,12.98 C23.4,12.92 23.48,12.92 23.54,13.02 L23.9,13.48 C23.98,13.56 23.98,13.64 23.88,13.72 C22.96,14.52 21.72,15.22 20.02,15.22 C17.9,15.22 15.94,13.9 15.94,11.52 L15.94,8.36 C15.94,5.8 17.76,4.48 20.04,4.48 C22.3,4.48 24.1,5.8 24.1,8.36 Z M23.06,8.36 C23.06,6.46 21.8,5.46 20.04,5.46 C18.22,5.46 17.02,6.44 17.02,8.36 L17.02,9.5 L23.06,9.5 L23.06,8.36 Z M27.6,5.28 C28.4,4.8 29.4,4.48 30.48,4.48 C33.06,4.48 34.74,5.94 34.74,8.76 L34.74,10.92 C34.74,13.9 33.02,15.22 30.42,15.22 C29.14,15.22 27.78,14.94 26.68,14.5 C26.58,14.48 26.54,14.4 26.54,14.32 L26.54,0.86 C26.54,0.76 26.62,0.7 26.72,0.7 L27.44,0.7 C27.54,0.7 27.6,0.76 27.6,0.86 L27.6,5.28 Z M30.4,14.26 C32.46,14.26 33.66,13.3 33.66,10.92 L33.66,8.76 C33.66,6.44 32.5,5.44 30.4,5.44 C29.38,5.44 28.38,5.78 27.6,6.3 L27.6,13.78 C28.4,14.06 29.38,14.26 30.4,14.26 Z" id="web" fill="#0E2D3F"></path>
                <path d="M53.08,11.3 C53.08,13.92 50.92,15.22 48.04,15.22 C46.04,15.22 44.64,14.6 43.08,13.32 C43,13.24 43,13.16 43.06,13.08 L43.48,12.5 C43.54,12.42 43.62,12.4 43.72,12.46 C45.12,13.6 46.42,14.16 48.06,14.18 C50.26,14.18 51.96,13.24 51.96,11.3 C51.96,9.56 50.7,8.86 47.86,8.22 C45.08,7.58 43.1,6.48 43.1,4.08 C43.1,1.6 45.36,0.48 47.98,0.48 C49.8,0.48 51.22,1.02 52.64,2.08 C52.74,2.14 52.72,2.24 52.68,2.32 L52.28,2.88 C52.22,2.98 52.12,3 52.04,2.94 C50.8,2 49.42,1.54 47.86,1.52 C45.86,1.52 44.22,2.36 44.22,4.12 C44.22,5.82 45.64,6.56 48.12,7.14 C51.3,7.9 53.08,8.86 53.08,11.3 Z M60.82,15 L56.02,15 C55.92,15 55.86,14.94 55.86,14.84 L55.86,0.86 C55.86,0.76 55.92,0.7 56.02,0.7 L60.82,0.7 C63.94,0.7 65.86,2.58 65.86,5.74 L65.86,10.02 C65.86,13.18 63.92,15 60.82,15 Z M56.96,1.72 L56.96,13.96 L60.82,13.96 C63.28,13.96 64.72,12.58 64.72,10.02 L64.72,5.74 C64.72,3.16 63.28,1.72 60.82,1.72 L56.96,1.72 Z M70.06,15 L69.28,15 C69.18,15 69.12,14.94 69.12,14.84 L69.12,0.86 C69.12,0.76 69.18,0.7 69.28,0.7 L70.06,0.7 C70.16,0.7 70.22,0.76 70.22,0.86 L70.22,8.2 L77.44,0.8 C77.52,0.74 77.58,0.7 77.66,0.7 L78.68,0.7 C78.82,0.7 78.88,0.8 78.78,0.9 L72.68,7.14 L79.16,14.8 C79.26,14.92 79.2,15 79.06,15 L78.04,15 C77.96,15 77.88,14.98 77.84,14.9 L71.94,7.92 L70.22,9.62 L70.22,14.84 C70.22,14.94 70.16,15 70.06,15 Z" id="SDK" fill="#4BAC22"></path>
            </g>
        </g>
    </g>
</svg>